<svg id="visual" viewBox="0 0 900 600" width="900" height="600" xmlns="http://www.w3.org/2000/svg" xmlns:xlink="http://www.w3.org/1999/xlink" version="1.1"><path d="M0 376L21.5 378C43 380 86 384 128.8 387.2C171.7 390.3 214.3 392.7 257.2 394.5C300 396.3 343 397.7 385.8 404C428.7 410.3 471.3 421.7 514.2 419.3C557 417 600 401 642.8 391.7C685.7 382.3 728.3 379.7 771.2 377.5C814 375.3 857 373.7 878.5 372.8L900 372L900 601L878.5 601C857 601 814 601 771.2 601C728.3 601 685.7 601 642.8 601C600 601 557 601 514.2 601C471.3 601 428.7 601 385.8 601C343 601 300 601 257.2 601C214.3 601 171.7 601 128.8 601C86 601 43 601 21.5 601L0 601Z" fill="#000000"></path><path d="M0 456L21.5 459.2C43 462.3 86 468.7 128.8 463.3C171.7 458 214.3 441 257.2 430.8C300 420.7 343 417.3 385.8 413C428.7 408.7 471.3 403.3 514.2 407.3C557 411.3 600 424.7 642.8 434.5C685.7 444.3 728.3 450.7 771.2 444.7C814 438.7 857 420.3 878.5 411.2L900 402L900 601L878.5 601C857 601 814 601 771.2 601C728.3 601 685.7 601 642.8 601C600 601 557 601 514.2 601C471.3 601 428.7 601 385.8 601C343 601 300 601 257.2 601C214.3 601 171.7 601 128.8 601C86 601 43 601 21.5 601L0 601Z" fill="#002122"></path><path d="M0 459L21.5 467.3C43 475.7 86 492.3 128.8 492.5C171.7 492.7 214.3 476.3 257.2 472.3C300 468.3 343 476.7 385.8 483.3C428.7 490 471.3 495 514.2 488.3C557 481.7 600 463.3 642.8 456.7C685.7 450 728.3 455 771.2 458.3C814 461.7 857 463.3 878.5 464.2L900 465L900 601L878.5 601C857 601 814 601 771.2 601C728.3 601 685.7 601 642.8 601C600 601 557 601 514.2 601C471.3 601 428.7 601 385.8 601C343 601 300 601 257.2 601C214.3 601 171.7 601 128.8 601C86 601 43 601 21.5 601L0 601Z" fill="#003738"></path><path d="M0 539L21.5 531.5C43 524 86 509 128.8 500.3C171.7 491.7 214.3 489.3 257.2 495.2C300 501 343 515 385.8 518C428.7 521 471.3 513 514.2 515.2C557 517.3 600 529.7 642.8 531.3C685.7 533 728.3 524 771.2 514C814 504 857 493 878.5 487.5L900 482L900 601L878.5 601C857 601 814 601 771.2 601C728.3 601 685.7 601 642.8 601C600 601 557 601 514.2 601C471.3 601 428.7 601 385.8 601C343 601 300 601 257.2 601C214.3 601 171.7 601 128.8 601C86 601 43 601 21.5 601L0 601Z" fill="#0f4d4e"></path><path d="M0 558L21.5 558C43 558 86 558 128.8 559C171.7 560 214.3 562 257.2 558.8C300 555.7 343 547.3 385.8 542.8C428.7 538.3 471.3 537.7 514.2 537.5C557 537.3 600 537.7 642.8 540.5C685.7 543.3 728.3 548.7 771.2 550.7C814 552.7 857 551.3 878.5 550.7L900 550L900 601L878.5 601C857 601 814 601 771.2 601C728.3 601 685.7 601 642.8 601C600 601 557 601 514.2 601C471.3 601 428.7 601 385.8 601C343 601 300 601 257.2 601C214.3 601 171.7 601 128.8 601C86 601 43 601 21.5 601L0 601Z" fill="#1f6565"></path></svg>