<svg id="visual" viewBox="0 0 2000 2000" width="2000" height="2000" xmlns="http://www.w3.org/2000/svg" xmlns:xlink="http://www.w3.org/1999/xlink" version="1.1"><rect x="0" y="0" width="2000" height="2000" fill="#f7f7f7"></rect><path d="M0 1233L47.7 1208.5C95.3 1184 190.7 1135 285.8 1076.7C381 1018.3 476 950.7 571.2 902.3C666.3 854 761.7 825 857 986.8C952.3 1148.7 1047.7 1501.3 1143 1669.8C1238.3 1838.3 1333.7 1822.7 1428.8 1793.2C1524 1763.7 1619 1720.3 1714.2 1619.7C1809.3 1519 1904.7 1361 1952.3 1282L2000 1203L2000 0L1952.3 0C1904.7 0 1809.3 0 1714.2 0C1619 0 1524 0 1428.8 0C1333.7 0 1238.3 0 1143 0C1047.7 0 952.3 0 857 0C761.7 0 666.3 0 571.2 0C476 0 381 0 285.8 0C190.7 0 95.3 0 47.7 0L0 0Z" fill="#07333b"></path><path d="M0 1256L47.7 1197.7C95.3 1139.3 190.7 1022.7 285.8 1098.3C381 1174 476 1442 571.2 1508.2C666.3 1574.3 761.7 1438.7 857 1375C952.3 1311.3 1047.7 1319.7 1143 1320.3C1238.3 1321 1333.7 1314 1428.8 1385.3C1524 1456.7 1619 1606.3 1714.2 1564C1809.3 1521.7 1904.7 1287.3 1952.3 1170.2L2000 1053L2000 0L1952.3 0C1904.7 0 1809.3 0 1714.2 0C1619 0 1524 0 1428.8 0C1333.7 0 1238.3 0 1143 0C1047.7 0 952.3 0 857 0C761.7 0 666.3 0 571.2 0C476 0 381 0 285.8 0C190.7 0 95.3 0 47.7 0L0 0Z" fill="#084048"></path><path d="M0 1415L47.7 1413.2C95.3 1411.3 190.7 1407.7 285.8 1421.7C381 1435.7 476 1467.3 571.2 1412.2C666.3 1357 761.7 1215 857 1132C952.3 1049 1047.7 1025 1143 1040.5C1238.3 1056 1333.7 1111 1428.8 1149.5C1524 1188 1619 1210 1714.2 1270C1809.3 1330 1904.7 1428 1952.3 1477L2000 1526L2000 0L1952.3 0C1904.7 0 1809.3 0 1714.2 0C1619 0 1524 0 1428.8 0C1333.7 0 1238.3 0 1143 0C1047.7 0 952.3 0 857 0C761.7 0 666.3 0 571.2 0C476 0 381 0 285.8 0C190.7 0 95.3 0 47.7 0L0 0Z" fill="#0a4d54"></path><path d="M0 1130L47.7 1173.2C95.3 1216.3 190.7 1302.7 285.8 1224.7C381 1146.7 476 904.3 571.2 799.7C666.3 695 761.7 728 857 723.3C952.3 718.7 1047.7 676.3 1143 677.2C1238.3 678 1333.7 722 1428.8 732.5C1524 743 1619 720 1714.2 782.3C1809.3 844.7 1904.7 992.3 1952.3 1066.2L2000 1140L2000 0L1952.3 0C1904.7 0 1809.3 0 1714.2 0C1619 0 1524 0 1428.8 0C1333.7 0 1238.3 0 1143 0C1047.7 0 952.3 0 857 0C761.7 0 666.3 0 571.2 0C476 0 381 0 285.8 0C190.7 0 95.3 0 47.7 0L0 0Z" fill="#0e5b60"></path><path d="M0 707L47.7 700.8C95.3 694.7 190.7 682.3 285.8 698.7C381 715 476 760 571.2 849.7C666.3 939.3 761.7 1073.7 857 1108.2C952.3 1142.7 1047.7 1077.3 1143 967.8C1238.3 858.3 1333.7 704.7 1428.8 662.7C1524 620.7 1619 690.3 1714.2 808.7C1809.3 927 1904.7 1094 1952.3 1177.5L2000 1261L2000 0L1952.3 0C1904.7 0 1809.3 0 1714.2 0C1619 0 1524 0 1428.8 0C1333.7 0 1238.3 0 1143 0C1047.7 0 952.3 0 857 0C761.7 0 666.3 0 571.2 0C476 0 381 0 285.8 0C190.7 0 95.3 0 47.7 0L0 0Z" fill="#14696c"></path><path d="M0 650L47.7 682.5C95.3 715 190.7 780 285.8 830.5C381 881 476 917 571.2 954.3C666.3 991.7 761.7 1030.3 857 1055.7C952.3 1081 1047.7 1093 1143 998.3C1238.3 903.7 1333.7 702.3 1428.8 626.8C1524 551.3 1619 601.7 1714.2 628C1809.3 654.3 1904.7 656.7 1952.3 657.8L2000 659L2000 0L1952.3 0C1904.7 0 1809.3 0 1714.2 0C1619 0 1524 0 1428.8 0C1333.7 0 1238.3 0 1143 0C1047.7 0 952.3 0 857 0C761.7 0 666.3 0 571.2 0C476 0 381 0 285.8 0C190.7 0 95.3 0 47.7 0L0 0Z" fill="#1b7877"></path><path d="M0 663L47.7 708.7C95.3 754.3 190.7 845.7 285.8 788C381 730.3 476 523.7 571.2 462.3C666.3 401 761.7 485 857 558.5C952.3 632 1047.7 695 1143 700.7C1238.3 706.3 1333.7 654.7 1428.8 650.5C1524 646.3 1619 689.7 1714.2 645C1809.3 600.3 1904.7 467.7 1952.3 401.3L2000 335L2000 0L1952.3 0C1904.7 0 1809.3 0 1714.2 0C1619 0 1524 0 1428.8 0C1333.7 0 1238.3 0 1143 0C1047.7 0 952.3 0 857 0C761.7 0 666.3 0 571.2 0C476 0 381 0 285.8 0C190.7 0 95.3 0 47.7 0L0 0Z" fill="#248782"></path><path d="M0 255L47.7 295C95.3 335 190.7 415 285.8 454C381 493 476 491 571.2 492.2C666.3 493.3 761.7 497.7 857 472.7C952.3 447.7 1047.7 393.3 1143 410C1238.3 426.7 1333.7 514.3 1428.8 570.2C1524 626 1619 650 1714.2 669.2C1809.3 688.3 1904.7 702.7 1952.3 709.8L2000 717L2000 0L1952.3 0C1904.7 0 1809.3 0 1714.2 0C1619 0 1524 0 1428.8 0C1333.7 0 1238.3 0 1143 0C1047.7 0 952.3 0 857 0C761.7 0 666.3 0 571.2 0C476 0 381 0 285.8 0C190.7 0 95.3 0 47.7 0L0 0Z" fill="#2f968c"></path><path d="M0 268L47.7 261.7C95.3 255.3 190.7 242.7 285.8 283.3C381 324 476 418 571.2 483.7C666.3 549.3 761.7 586.7 857 578C952.3 569.3 1047.7 514.7 1143 468.3C1238.3 422 1333.7 384 1428.8 365.8C1524 347.7 1619 349.3 1714.2 322.7C1809.3 296 1904.7 241 1952.3 213.5L2000 186L2000 0L1952.3 0C1904.7 0 1809.3 0 1714.2 0C1619 0 1524 0 1428.8 0C1333.7 0 1238.3 0 1143 0C1047.7 0 952.3 0 857 0C761.7 0 666.3 0 571.2 0C476 0 381 0 285.8 0C190.7 0 95.3 0 47.7 0L0 0Z" fill="#3ba595"></path><path d="M0 362L47.7 350.7C95.3 339.3 190.7 316.7 285.8 297C381 277.3 476 260.7 571.2 284.5C666.3 308.3 761.7 372.7 857 406.3C952.3 440 1047.7 443 1143 387C1238.3 331 1333.7 216 1428.8 171C1524 126 1619 151 1714.2 199.2C1809.3 247.3 1904.7 318.7 1952.3 354.3L2000 390L2000 0L1952.3 0C1904.7 0 1809.3 0 1714.2 0C1619 0 1524 0 1428.8 0C1333.7 0 1238.3 0 1143 0C1047.7 0 952.3 0 857 0C761.7 0 666.3 0 571.2 0C476 0 381 0 285.8 0C190.7 0 95.3 0 47.7 0L0 0Z" fill="#48b49e"></path><path d="M0 125L47.7 121.7C95.3 118.3 190.7 111.7 285.8 138.2C381 164.7 476 224.3 571.2 213.8C666.3 203.3 761.7 122.7 857 86.2C952.3 49.7 1047.7 57.3 1143 86.5C1238.3 115.7 1333.7 166.3 1428.8 162.7C1524 159 1619 101 1714.2 96.8C1809.3 92.7 1904.7 142.3 1952.3 167.2L2000 192L2000 0L1952.3 0C1904.7 0 1809.3 0 1714.2 0C1619 0 1524 0 1428.8 0C1333.7 0 1238.3 0 1143 0C1047.7 0 952.3 0 857 0C761.7 0 666.3 0 571.2 0C476 0 381 0 285.8 0C190.7 0 95.3 0 47.7 0L0 0Z" fill="#57c4a6"></path></svg>