<svg id="visual" viewBox="0 0 400 200" width="400" height="200" xmlns="http://www.w3.org/2000/svg" xmlns:xlink="http://www.w3.org/1999/xlink" version="1.1"><rect x="0" y="0" width="400" height="200" fill="#001220"></rect><path d="M0 130L9.5 128.7C19 127.3 38 124.7 57 125.7C76 126.7 95 131.3 114 131.7C133 132 152 128 171.2 125C190.3 122 209.7 120 228.8 119.2C248 118.3 267 118.7 286 119.8C305 121 324 123 343 127.5C362 132 381 139 390.5 142.5L400 146L400 201L390.5 201C381 201 362 201 343 201C324 201 305 201 286 201C267 201 248 201 228.8 201C209.7 201 190.3 201 171.2 201C152 201 133 201 114 201C95 201 76 201 57 201C38 201 19 201 9.5 201L0 201Z" fill="#090909"></path><path d="M0 140L9.5 142.2C19 144.3 38 148.7 57 150.7C76 152.7 95 152.3 114 148.7C133 145 152 138 171.2 137.2C190.3 136.3 209.7 141.7 228.8 146C248 150.3 267 153.7 286 151.2C305 148.7 324 140.3 343 137.8C362 135.3 381 138.7 390.5 140.3L400 142L400 201L390.5 201C381 201 362 201 343 201C324 201 305 201 286 201C267 201 248 201 228.8 201C209.7 201 190.3 201 171.2 201C152 201 133 201 114 201C95 201 76 201 57 201C38 201 19 201 9.5 201L0 201Z" fill="#162927"></path><path d="M0 167L9.5 164.3C19 161.7 38 156.3 57 156.3C76 156.3 95 161.7 114 164.3C133 167 152 167 171.2 164.8C190.3 162.7 209.7 158.3 228.8 156.3C248 154.3 267 154.7 286 156.2C305 157.7 324 160.3 343 160C362 159.7 381 156.3 390.5 154.7L400 153L400 201L390.5 201C381 201 362 201 343 201C324 201 305 201 286 201C267 201 248 201 228.8 201C209.7 201 190.3 201 171.2 201C152 201 133 201 114 201C95 201 76 201 57 201C38 201 19 201 9.5 201L0 201Z" fill="#1b4945"></path><path d="M0 176L9.5 174.5C19 173 38 170 57 168.3C76 166.7 95 166.3 114 165.3C133 164.3 152 162.7 171.2 161.7C190.3 160.7 209.7 160.3 228.8 161.8C248 163.3 267 166.7 286 166.8C305 167 324 164 343 162.7C362 161.3 381 161.7 390.5 161.8L400 162L400 201L390.5 201C381 201 362 201 343 201C324 201 305 201 286 201C267 201 248 201 228.8 201C209.7 201 190.3 201 171.2 201C152 201 133 201 114 201C95 201 76 201 57 201C38 201 19 201 9.5 201L0 201Z" fill="#196b65"></path><path d="M0 176L9.5 176.2C19 176.3 38 176.7 57 177.2C76 177.7 95 178.3 114 180.2C133 182 152 185 171.2 184.5C190.3 184 209.7 180 228.8 178.7C248 177.3 267 178.7 286 180.7C305 182.7 324 185.3 343 186.7C362 188 381 188 390.5 188L400 188L400 201L390.5 201C381 201 362 201 343 201C324 201 305 201 286 201C267 201 248 201 228.8 201C209.7 201 190.3 201 171.2 201C152 201 133 201 114 201C95 201 76 201 57 201C38 201 19 201 9.5 201L0 201Z" fill="#098f86"></path></svg>