<svg id="visual" viewBox="0 0 1920 2000" width="1920" height="2000" xmlns="http://www.w3.org/2000/svg" xmlns:xlink="http://www.w3.org/1999/xlink" version="1.1"><rect x="0" y="0" width="1920" height="2000" fill="#f5f5f5"></rect><path d="M0 986L32 970.2C64 954.3 128 922.7 192 947C256 971.3 320 1051.7 384 1058.8C448 1066 512 1000 576 1050.5C640 1101 704 1268 768 1350.2C832 1432.3 896 1429.7 960 1353.2C1024 1276.7 1088 1126.3 1152 1080.3C1216 1034.3 1280 1092.7 1344 1186.7C1408 1280.7 1472 1410.3 1536 1405C1600 1399.7 1664 1259.3 1728 1248.3C1792 1237.3 1856 1355.7 1888 1414.8L1920 1474L1920 0L1888 0C1856 0 1792 0 1728 0C1664 0 1600 0 1536 0C1472 0 1408 0 1344 0C1280 0 1216 0 1152 0C1088 0 1024 0 960 0C896 0 832 0 768 0C704 0 640 0 576 0C512 0 448 0 384 0C320 0 256 0 192 0C128 0 64 0 32 0L0 0Z" fill="#000000"></path><path d="M0 930L32 983.7C64 1037.3 128 1144.7 192 1211.7C256 1278.7 320 1305.3 384 1250.8C448 1196.3 512 1060.7 576 1044.3C640 1028 704 1131 768 1214.7C832 1298.3 896 1362.7 960 1329.5C1024 1296.3 1088 1165.7 1152 1091C1216 1016.3 1280 997.7 1344 961.7C1408 925.7 1472 872.3 1536 849.3C1600 826.3 1664 833.7 1728 884.2C1792 934.7 1856 1028.3 1888 1075.2L1920 1122L1920 0L1888 0C1856 0 1792 0 1728 0C1664 0 1600 0 1536 0C1472 0 1408 0 1344 0C1280 0 1216 0 1152 0C1088 0 1024 0 960 0C896 0 832 0 768 0C704 0 640 0 576 0C512 0 448 0 384 0C320 0 256 0 192 0C128 0 64 0 32 0L0 0Z" fill="#202228"></path><path d="M0 1114L32 1063C64 1012 128 910 192 921.8C256 933.7 320 1059.3 384 1090.7C448 1122 512 1059 576 1062.3C640 1065.7 704 1135.3 768 1149.8C832 1164.3 896 1123.7 960 1030C1024 936.3 1088 789.7 1152 721.5C1216 653.3 1280 663.7 1344 759.3C1408 855 1472 1036 1536 1048.2C1600 1060.3 1664 903.7 1728 891.5C1792 879.3 1856 1011.7 1888 1077.8L1920 1144L1920 0L1888 0C1856 0 1792 0 1728 0C1664 0 1600 0 1536 0C1472 0 1408 0 1344 0C1280 0 1216 0 1152 0C1088 0 1024 0 960 0C896 0 832 0 768 0C704 0 640 0 576 0C512 0 448 0 384 0C320 0 256 0 192 0C128 0 64 0 32 0L0 0Z" fill="#3c3f46"></path><path d="M0 932L32 872.2C64 812.3 128 692.7 192 693C256 693.3 320 813.7 384 847.5C448 881.3 512 828.7 576 829.5C640 830.3 704 884.7 768 898.8C832 913 896 887 960 835.3C1024 783.7 1088 706.3 1152 725.3C1216 744.3 1280 859.7 1344 886.3C1408 913 1472 851 1536 833.5C1600 816 1664 843 1728 830.2C1792 817.3 1856 764.7 1888 738.3L1920 712L1920 0L1888 0C1856 0 1792 0 1728 0C1664 0 1600 0 1536 0C1472 0 1408 0 1344 0C1280 0 1216 0 1152 0C1088 0 1024 0 960 0C896 0 832 0 768 0C704 0 640 0 576 0C512 0 448 0 384 0C320 0 256 0 192 0C128 0 64 0 32 0L0 0Z" fill="#5c5f65"></path><path d="M0 515L32 558C64 601 128 687 192 734.7C256 782.3 320 791.7 384 809.5C448 827.3 512 853.7 576 832C640 810.3 704 740.7 768 668.7C832 596.7 896 522.3 960 548.8C1024 575.3 1088 702.7 1152 726.3C1216 750 1280 670 1344 609.8C1408 549.7 1472 509.3 1536 517.5C1600 525.7 1664 582.3 1728 635.2C1792 688 1856 737 1888 761.5L1920 786L1920 0L1888 0C1856 0 1792 0 1728 0C1664 0 1600 0 1536 0C1472 0 1408 0 1344 0C1280 0 1216 0 1152 0C1088 0 1024 0 960 0C896 0 832 0 768 0C704 0 640 0 576 0C512 0 448 0 384 0C320 0 256 0 192 0C128 0 64 0 32 0L0 0Z" fill="#7d8087"></path><path d="M0 660L32 665.5C64 671 128 682 192 647.7C256 613.3 320 533.7 384 478C448 422.3 512 390.7 576 378C640 365.3 704 371.7 768 426.2C832 480.7 896 583.3 960 595C1024 606.7 1088 527.3 1152 524C1216 520.7 1280 593.3 1344 624.3C1408 655.3 1472 644.7 1536 590.3C1600 536 1664 438 1728 402.3C1792 366.7 1856 393.3 1888 406.7L1920 420L1920 0L1888 0C1856 0 1792 0 1728 0C1664 0 1600 0 1536 0C1472 0 1408 0 1344 0C1280 0 1216 0 1152 0C1088 0 1024 0 960 0C896 0 832 0 768 0C704 0 640 0 576 0C512 0 448 0 384 0C320 0 256 0 192 0C128 0 64 0 32 0L0 0Z" fill="#9fa2aa"></path><path d="M0 264L32 289.3C64 314.7 128 365.3 192 372.8C256 380.3 320 344.7 384 332.5C448 320.3 512 331.7 576 322.5C640 313.3 704 283.7 768 280.2C832 276.7 896 299.3 960 329.8C1024 360.3 1088 398.7 1152 393.7C1216 388.7 1280 340.3 1344 328.7C1408 317 1472 342 1536 342C1600 342 1664 317 1728 336.2C1792 355.3 1856 418.7 1888 450.3L1920 482L1920 0L1888 0C1856 0 1792 0 1728 0C1664 0 1600 0 1536 0C1472 0 1408 0 1344 0C1280 0 1216 0 1152 0C1088 0 1024 0 960 0C896 0 832 0 768 0C704 0 640 0 576 0C512 0 448 0 384 0C320 0 256 0 192 0C128 0 64 0 32 0L0 0Z" fill="#c4c7ce"></path><path d="M0 160L32 154.5C64 149 128 138 192 131C256 124 320 121 384 122.5C448 124 512 130 576 161.2C640 192.3 704 248.7 768 276.2C832 303.7 896 302.3 960 291.2C1024 280 1088 259 1152 229C1216 199 1280 160 1344 140.2C1408 120.3 1472 119.7 1536 150.7C1600 181.7 1664 244.3 1728 253.5C1792 262.7 1856 218.3 1888 196.2L1920 174L1920 0L1888 0C1856 0 1792 0 1728 0C1664 0 1600 0 1536 0C1472 0 1408 0 1344 0C1280 0 1216 0 1152 0C1088 0 1024 0 960 0C896 0 832 0 768 0C704 0 640 0 576 0C512 0 448 0 384 0C320 0 256 0 192 0C128 0 64 0 32 0L0 0Z" fill="#e9ecf4"></path></svg>